HIERARCHY
ROOT Hips
{
  OFFSET 76.347 92.6806 -49.6304
  CHANNELS 6 Xposition Yposition Zposition Zrotation Xrotation Yrotation
  JOINT RightUpLeg
  {
    OFFSET -9.2536 -1.56971 -0.009835
    CHANNELS 3 Zrotation Xrotation Yrotation
    JOINT RightLeg
    {
      OFFSET 0.003613 -41.8721 0.033096
      CHANNELS 3 Zrotation Xrotation Yrotation
      JOINT RightFoot
      {
        OFFSET 0.190023 -41.7536 -0.162077
        CHANNELS 3 Zrotation Xrotation Yrotation
        End Site
        {
          OFFSET 0 -7.69 17.5
        }
      }
    }
  }
  JOINT LeftUpLeg
  {
    OFFSET 9.25993 -1.60807 -0.003591
    CHANNELS 3 Zrotation Xrotation Yrotation
    JOINT LeftLeg
    {
      OFFSET 0.056181 -41.8768 -0.046918
      CHANNELS 3 Zrotation Xrotation Yrotation
      JOINT LeftFoot
      {
        OFFSET 0.206009 -42.0177 -0.454554
        CHANNELS 3 Zrotation Xrotation Yrotation
        End Site
        {
          OFFSET 0 -7.69 17.5
        }
      }
    }
  }
  JOINT Spine
  {
    OFFSET 0.055174 14.3087 0.014143
    CHANNELS 3 Zrotation Xrotation Yrotation
    JOINT Spine1
    {
      OFFSET 0.013927 9.70629 0.00545
      CHANNELS 3 Zrotation Xrotation Yrotation
      JOINT Spine2
      {
        OFFSET 0.014023 10.1242 0.014512
        CHANNELS 3 Zrotation Xrotation Yrotation
        JOINT Spine3
        {
          OFFSET 0.012086 9.7191 0.009001
          CHANNELS 3 Zrotation Xrotation Yrotation
          JOINT Neck
          {
            OFFSET 0.131707 10.3859 0.054297
            CHANNELS 3 Zrotation Xrotation Yrotation
            JOINT Head
            {
              OFFSET -0.005552 9.48088 0.122183
              CHANNELS 3 Zrotation Xrotation Yrotation
              End Site
              {
                OFFSET 0 15.95 0
              }
            }
          }
          JOINT RightShoulder
          {
            OFFSET -3.20137 6.92944 0.018295
            CHANNELS 3 Zrotation Xrotation Yrotation
            JOINT RightArm
            {
              OFFSET -12.7595 0.009634 0.00435
              CHANNELS 3 Zrotation Xrotation Yrotation
              JOINT RightForeArm
              {
                OFFSET -26.5076 -0.004773 -0.015002
                CHANNELS 3 Zrotation Xrotation Yrotation
                JOINT RightHand
                {
                  OFFSET -26.002 -5.9e-05 -0.011656
                  CHANNELS 3 Zrotation Xrotation Yrotation
                  JOINT RightHandThumb1
                  {
                    OFFSET -2.48905 0.190105 3.12053
                    CHANNELS 3 Zrotation Xrotation Yrotation
                    JOINT RightHandThumb2
                    {
                      OFFSET -3.68274 0 0
                      CHANNELS 3 Zrotation Xrotation Yrotation
                      JOINT RightHandThumb3
                      {
                        OFFSET -2.55832 0 0
                        CHANNELS 3 Zrotation Xrotation Yrotation
                        End Site
                        {
                          OFFSET -2.194 0 0
                        }
                      }
                    }
                  }
                  JOINT RightInHandIndex
                  {
                    OFFSET -3.22368 0.508421 1.97842
                    CHANNELS 3 Zrotation Xrotation Yrotation
                    JOINT RightHandIndex1
                    {
                      OFFSET -5.21684 -0.091368 0.999158
                      CHANNELS 3 Zrotation Xrotation Yrotation
                      JOINT RightHandIndex2
                      {
                        OFFSET -3.61937 0 0
                        CHANNELS 3 Zrotation Xrotation Yrotation
                        JOINT RightHandIndex3
                        {
                          OFFSET -2.0521 0 0
                          CHANNELS 3 Zrotation Xrotation Yrotation
                          End Site
                          {
                            OFFSET -1.805 0 0
                          }
                        }
                      }
                    }
                  }
                  JOINT RightInHandMiddle
                  {
                    OFFSET -3.38211 0.517263 0.756737
                    CHANNELS 3 Zrotation Xrotation Yrotation
                    JOINT RightHandMiddle1
                    {
                      OFFSET -5.17411 -0.084 0.313895
                      CHANNELS 3 Zrotation Xrotation Yrotation
                      JOINT RightHandMiddle2
                      {
                        OFFSET -3.94947 0 0
                        CHANNELS 3 Zrotation Xrotation Yrotation
                        JOINT RightHandMiddle3
                        {
                          OFFSET -2.47579 0 0
                          CHANNELS 3 Zrotation Xrotation Yrotation
                          End Site
                          {
                            OFFSET -1.975 0 0
                          }
                        }
                      }
                    }
                  }
                  JOINT RightInHandRing
                  {
                    OFFSET -3.36516 0.537895 -0.128947
                    CHANNELS 3 Zrotation Xrotation Yrotation
                    JOINT RightHandRing1
                    {
                      OFFSET -4.63474 -0.022105 -0.478947
                      CHANNELS 3 Zrotation Xrotation Yrotation
                      JOINT RightHandRing2
                      {
                        OFFSET -3.44238 0 0
                        CHANNELS 3 Zrotation Xrotation Yrotation
                        JOINT RightHandRing3
                        {
                          OFFSET -2.3881 0 0
                          CHANNELS 3 Zrotation Xrotation Yrotation
                          End Site
                          {
                            OFFSET -1.857 0 0
                          }
                        }
                      }
                    }
                  }
                  JOINT RightInHandPinky
                  {
                    OFFSET -3.16105 0.469368 -1.20179
                    CHANNELS 3 Zrotation Xrotation Yrotation
                    JOINT RightHandPinky1
                    {
                      OFFSET -4.14105 -0.022105 -1.09053
                      CHANNELS 3 Zrotation Xrotation Yrotation
                      JOINT RightHandPinky2
                      {
                        OFFSET -2.75653 0 0
                        CHANNELS 3 Zrotation Xrotation Yrotation
                        JOINT RightHandPinky3
                        {
                          OFFSET -1.74189 0 0
                          CHANNELS 3 Zrotation Xrotation Yrotation
                          End Site
                          {
                            OFFSET -1.645 0 0
                          }
                        }
                      }
                    }
                  }
                }
              }
            }
          }
          JOINT LeftShoulder
          {
            OFFSET 3.20143 6.91127 -0.000395
            CHANNELS 3 Zrotation Xrotation Yrotation
            JOINT LeftArm
            {
              OFFSET 12.7779 -0.028682 -0.037301
              CHANNELS 3 Zrotation Xrotation Yrotation
              JOINT LeftForeArm
              {
                OFFSET 26.4982 -0.116492 -0.017681
                CHANNELS 3 Zrotation Xrotation Yrotation
                JOINT LeftHand
                {
                  OFFSET 26.0046 -0.058588 -0.01331
                  CHANNELS 3 Zrotation Xrotation Yrotation
                  JOINT LeftHandThumb1
                  {
                    OFFSET 2.48905 0.190105 3.12053
                    CHANNELS 3 Zrotation Xrotation Yrotation
                    JOINT LeftHandThumb2
                    {
                      OFFSET 3.68274 0 0
                      CHANNELS 3 Zrotation Xrotation Yrotation
                      JOINT LeftHandThumb3
                      {
                        OFFSET 2.55832 0 0
                        CHANNELS 3 Zrotation Xrotation Yrotation
                        End Site
                        {
                          OFFSET 2.194 0 0
                        }
                      }
                    }
                  }
                  JOINT LeftInHandIndex
                  {
                    OFFSET 3.22368 0.508421 1.97842
                    CHANNELS 3 Zrotation Xrotation Yrotation
                    JOINT LeftHandIndex1
                    {
                      OFFSET 5.21684 -0.091368 0.999158
                      CHANNELS 3 Zrotation Xrotation Yrotation
                      JOINT LeftHandIndex2
                      {
                        OFFSET 3.61937 0 0
                        CHANNELS 3 Zrotation Xrotation Yrotation
                        JOINT LeftHandIndex3
                        {
                          OFFSET 2.0521 0 0
                          CHANNELS 3 Zrotation Xrotation Yrotation
                          End Site
                          {
                            OFFSET 1.805 0 0
                          }
                        }
                      }
                    }
                  }
                  JOINT LeftInHandMiddle
                  {
                    OFFSET 3.38211 0.517263 0.756737
                    CHANNELS 3 Zrotation Xrotation Yrotation
                    JOINT LeftHandMiddle1
                    {
                      OFFSET 5.17411 -0.084 0.313895
                      CHANNELS 3 Zrotation Xrotation Yrotation
                      JOINT LeftHandMiddle2
                      {
                        OFFSET 3.94947 0 0
                        CHANNELS 3 Zrotation Xrotation Yrotation
                        JOINT LeftHandMiddle3
                        {
                          OFFSET 2.47579 0 0
                          CHANNELS 3 Zrotation Xrotation Yrotation
                          End Site
                          {
                            OFFSET 1.975 0 0
                          }
                        }
                      }
                    }
                  }
                  JOINT LeftInHandRing
                  {
                    OFFSET 3.36516 0.537895 -0.128947
                    CHANNELS 3 Zrotation Xrotation Yrotation
                    JOINT LeftHandRing1
                    {
                      OFFSET 4.63474 -0.022105 -0.478947
                      CHANNELS 3 Zrotation Xrotation Yrotation
                      JOINT LeftHandRing2
                      {
                        OFFSET 3.44238 0 0
                        CHANNELS 3 Zrotation Xrotation Yrotation
                        JOINT LeftHandRing3
                        {
                          OFFSET 2.3881 0 0
                          CHANNELS 3 Zrotation Xrotation Yrotation
                          End Site
                          {
                            OFFSET 1.857 0 0
                          }
                        }
                      }
                    }
                  }
                  JOINT LeftInHandPinky
                  {
                    OFFSET 3.16105 0.469368 -1.20179
                    CHANNELS 3 Zrotation Xrotation Yrotation
                    JOINT LeftHandPinky1
                    {
                      OFFSET 4.14105 -0.022105 -1.09053
                      CHANNELS 3 Zrotation Xrotation Yrotation
                      JOINT LeftHandPinky2
                      {
                        OFFSET 2.75653 0 0
                        CHANNELS 3 Zrotation Xrotation Yrotation
                        JOINT LeftHandPinky3
                        {
                          OFFSET 1.74189 0 0
                          CHANNELS 3 Zrotation Xrotation Yrotation
                          End Site
                          {
                            OFFSET 1.645 0 0
                          }
                        }
                      }
                    }
                  }
                }
              }
            }
          }
        }
      }
    }
  }
}
MOTION
Frames: 3
Frame Time: 0.00833333
1.500000185708704805e+02 4.742211625172358734e-05 -4.249088180451482139e-04 -1.109265764874336514e-03 3.422112925188274999e-04 -8.217542322597941404e-04 -7.274876213607678202e-04 1.482351001495056382e-04 -4.545965998272231273e-03 6.686002532503506918e-04 -2.152078335653901352e-04 5.871639336634907995e-03 3.338490234516699844e-03 2.876890938558392466e-03 -5.917674302291042829e-04 3.284500165112584722e-03 2.825657271243477847e-03 6.657699476243545897e-03 -2.384974168507406588e-03 7.873609546816240888e-04 -4.988066697019902067e-03 -9.831765020490651832e-04 3.648229617000053274e-05 -7.779848402341756498e-04 1.607084767031389735e-03 1.405328342735258482e-04 5.454201738028057172e-04 3.339756056420431626e-04 1.877991006280611093e-04 1.716446388097079428e-04 -8.455823770313762220e-05 4.784092553715460326e-05 3.114575450022554664e-04 -2.894531574942068393e-05 1.246867147929838274e-05 -5.992339671863177028e-05 -5.544796963865976890e-03 -1.614602176579740768e-03 -2.690479627847969755e-03 6.387130729303761023e-04 -1.474427573290662281e-03 9.430794411107751730e-04 -4.277752648990886322e-03 6.361556921967053465e-04 9.921976003249277903e-06 -5.050058289496038317e-04 -8.657982713406280062e-04 1.315256641043520891e-05 2.195314374253620575e-03 -4.421018155518171341e-04 6.334019110431686559e-04 -7.975126364852090513e-04 7.035464244052552589e-05 2.759872216969173875e-04 0.000000000000000000e+00 0.000000000000000000e+00 0.000000000000000000e+00 -9.977822026806822914e-16 6.004940089237066679e-15 0.000000000000000000e+00 -8.249128548569418559e-16 2.079426441806141020e-15 0.000000000000000000e+00 2.057344050941018052e-15 1.349126088377389645e-15 -2.844590853651240122e-15 0.000000000000000000e+00 0.000000000000000000e+00 0.000000000000000000e+00 0.000000000000000000e+00 1.267611851104915823e-15 -7.711939809840779938e-15 0.000000000000000000e+00 -4.168030951833863993e-15 -1.372784124243026194e-14 2.057344050941018052e-15 1.349126088377389645e-15 -2.844590853651240122e-15 0.000000000000000000e+00 -1.205594477553092859e-14 3.446224768165053276e-15 0.000000000000000000e+00 1.158731310892739448e-15 -3.783898637445899587e-15 0.000000000000000000e+00 1.061404594684592320e-15 -1.015557669352983291e-14 2.057344050941018052e-15 1.349126088377389645e-15 -2.844590853651240122e-15 0.000000000000000000e+00 0.000000000000000000e+00 0.000000000000000000e+00 0.000000000000000000e+00 1.939697800638121070e-16 -4.274232574798705935e-15 0.000000000000000000e+00 3.480924034843279600e-15 -7.582887885219182665e-15 2.057344050941018052e-15 1.349126088377389645e-15 -2.844590853651240122e-15 0.000000000000000000e+00 0.000000000000000000e+00 0.000000000000000000e+00 0.000000000000000000e+00 -2.422376810537006720e-15 -1.627743220641338504e-14 0.000000000000000000e+00 -1.172918198257155664e-15 -1.406247584475615722e-14 -3.918896284100898027e-03 6.037675725553786048e-04 1.691044860797616617e-03 1.540473008106112238e-03 -7.738673055586653068e-04 -2.553137788624452661e-03 -2.067924261040505248e-03 2.346101732150037604e-04 -1.440283227803645406e-03 -6.984220425921316630e-03 3.022962545411536379e-03 8.161276958381083121e-03 0.000000000000000000e+00 0.000000000000000000e+00 0.000000000000000000e+00 1.430463502382365986e-15 -2.293846718064094504e-15 0.000000000000000000e+00 3.988914812894173173e-15 -2.564899732746315877e-15 0.000000000000000000e+00 -1.345367182071144604e-17 1.157106606614522371e-15 -1.281377206944525011e-15 0.000000000000000000e+00 0.000000000000000000e+00 0.000000000000000000e+00 0.000000000000000000e+00 -1.966329834265599069e-15 -7.051980153546328768e-15 0.000000000000000000e+00 1.001124940712799216e-15 -1.168960278747224744e-14 -1.345367182071144604e-17 1.157106606614522371e-15 -1.281377206944525011e-15 0.000000000000000000e+00 2.008508643975368113e-15 -3.640148756126675622e-15 0.000000000000000000e+00 3.135349113730198722e-15 -7.166566111002384179e-15 0.000000000000000000e+00 2.179622575692812983e-16 -6.583653613829978605e-15 -1.345367182071144604e-17 1.157106606614522371e-15 -1.281377206944525011e-15 0.000000000000000000e+00 0.000000000000000000e+00 0.000000000000000000e+00 0.000000000000000000e+00 -1.425781251512789130e-15 -4.362622787011789536e-15 0.000000000000000000e+00 2.780083406378885655e-15 -1.223078524029276143e-14 -1.345367182071144604e-17 1.157106606614522371e-15 -1.281377206944525011e-15 0.000000000000000000e+00 0.000000000000000000e+00 0.000000000000000000e+00 0.000000000000000000e+00 3.377847111898210339e-15 5.066530403842572865e-15 0.000000000000000000e+00 3.428015099512645019e-15 -1.212148754673420590e-14
1.500000077511553229e+02 4.949623237449021654e-05 -1.281297976565959318e-04 -1.707967795726331953e-04 -2.126068904316844174e-04 -4.497755224919829705e-04 1.399488690599801644e-05 2.227094328965131820e-03 5.266539608549446715e-03 -9.532435811396445385e-04 -5.711471156962118732e-04 -4.827764607373609754e-03 -1.176818349922603745e-03 -1.801771155557429756e-03 -9.593298052047835763e-04 -1.694239272468657607e-03 4.997742670487523905e-04 -6.599397213613321378e-03 -1.091176570220322691e-03 -1.043918777798497717e-03 6.786933836229388020e-03 5.457199253777526805e-04 -9.917089016589401374e-05 -6.114644564055701694e-04 -1.141124200671918840e-03 -4.566488659660801301e-04 -4.354795530780485925e-04 -1.019762767134065431e-04 1.093989147184436918e-05 -1.778154921412570318e-04 -1.351217882618282432e-04 -2.126547838879950972e-04 -3.631951354256882092e-04 -1.194818699874749712e-05 3.390161585050772898e-08 5.225924088315816597e-06 4.356997379914130143e-03 1.094435600037263305e-03 3.294554107311208849e-03 -4.555769556041476954e-04 1.421646997637547810e-03 -1.862925673122748055e-04 1.130683726641102055e-03 1.847207163112601349e-03 4.680674140971971412e-04 1.310944581698729201e-03 -1.737753145293970028e-05 1.944816209270161349e-03 -3.158992993969145929e-03 -8.300820377644555154e-04 -9.914045763185499408e-04 1.917182437486625399e-04 -1.484815782167794515e-03 -1.350906607448199405e-03 0.000000000000000000e+00 0.000000000000000000e+00 0.000000000000000000e+00 1.837782112509495983e-15 1.714981163787096283e-16 0.000000000000000000e+00 1.161181502695256872e-15 -1.811119987175173640e-15 0.000000000000000000e+00 1.051724463349354156e-16 6.748098190540268422e-16 4.486432678821061107e-16 0.000000000000000000e+00 0.000000000000000000e+00 0.000000000000000000e+00 0.000000000000000000e+00 2.423312384134877832e-15 5.669080377303843171e-15 0.000000000000000000e+00 3.299641358373585614e-15 3.634977691963931715e-15 1.051724463349354156e-16 6.748098190540268422e-16 4.486432678821061107e-16 0.000000000000000000e+00 7.877258667788878078e-15 -2.318203630432563810e-15 0.000000000000000000e+00 2.779043727969625868e-15 -2.390041526938693322e-15 0.000000000000000000e+00 -4.476288234167956388e-15 8.557155346059005184e-16 1.051724463349354156e-16 6.748098190540268422e-16 4.486432678821061107e-16 0.000000000000000000e+00 0.000000000000000000e+00 0.000000000000000000e+00 0.000000000000000000e+00 3.185358139943376446e-16 2.356503409281322580e-15 0.000000000000000000e+00 -2.068763223828830206e-15 -2.627650883919707695e-16 1.051724463349354156e-16 6.748098190540268422e-16 4.486432678821061107e-16 0.000000000000000000e+00 0.000000000000000000e+00 0.000000000000000000e+00 0.000000000000000000e+00 1.080050414072683546e-15 7.430551810865058248e-15 0.000000000000000000e+00 1.321135186522665715e-15 3.723392802583855748e-15 2.197786111434978183e-03 -2.913257410632617470e-04 -5.672731904081298841e-05 -1.897879101881143164e-03 3.978616905716926078e-04 2.359310148513308301e-03 8.359321116127231381e-04 -2.108730909692088217e-04 -7.963693489595563514e-04 9.455144369125067713e-04 3.764603595150203580e-04 -1.316793359182595255e-03 0.000000000000000000e+00 0.000000000000000000e+00 0.000000000000000000e+00 -4.392908945904324914e-15 -9.290243526514335480e-16 0.000000000000000000e+00 -5.712201865843908477e-16 -5.967001104127692922e-16 0.000000000000000000e+00 -2.253578943719239968e-16 -1.452745987074285022e-15 1.004853892778592183e-15 0.000000000000000000e+00 0.000000000000000000e+00 0.000000000000000000e+00 0.000000000000000000e+00 1.836814277888130591e-15 9.584426274501567804e-16 0.000000000000000000e+00 1.512468864461779639e-15 -9.878273905894806864e-15 -2.253578943719239968e-16 -1.452745987074285022e-15 1.004853892778592183e-15 0.000000000000000000e+00 -7.206657481011944558e-16 3.592338127295859616e-16 0.000000000000000000e+00 -1.251199229195183041e-15 1.601623423352999395e-15 0.000000000000000000e+00 2.615587434946809511e-15 -1.048981775736903463e-14 -2.253578943719239968e-16 -1.452745987074285022e-15 1.004853892778592183e-15 0.000000000000000000e+00 0.000000000000000000e+00 0.000000000000000000e+00 0.000000000000000000e+00 1.775251414570466958e-15 1.690171846526777048e-15 0.000000000000000000e+00 8.491326497292285931e-16 -4.598655260782877129e-15 -2.253578943719239968e-16 -1.452745987074285022e-15 1.004853892778592183e-15 0.000000000000000000e+00 0.000000000000000000e+00 0.000000000000000000e+00 0.000000000000000000e+00 1.612645386265928213e-15 -2.956391960800507200e-15 0.000000000000000000e+00 -2.844957833103732587e-15 7.895910800479655044e-15
1.500000001027953829e+02 -1.888568890932798702e-05 3.908420517796350191e-04 7.012716343661903841e-04 -1.093697673072392744e-04 5.317479355195543506e-04 5.754603888332363026e-04 -3.061158140117605474e-03 -3.822966093959502196e-03 1.367220380633047370e-03 9.595188696840971148e-04 4.111997770787250914e-03 -3.606495007269697574e-04 8.785562629274203507e-04 5.248679409881247017e-04 -3.284336303576886995e-05 -1.577102017590676459e-03 3.181343448822244666e-03 2.222727457575066241e-03 8.345613935822115753e-04 -3.587760696598804849e-03 -4.764690672846886525e-04 4.891642194568081889e-05 6.403085681179296763e-04 8.404886953227258496e-04 3.367822732340409043e-04 3.607757798239125038e-05 1.056555668183080125e-07 -1.912123381163174420e-06 2.672958695699673371e-05 2.035847393110543058e-04 1.483027892082649601e-04 2.328705465579593303e-04 3.362234357823352894e-05 -2.084181377032634131e-05 1.334060906741673997e-05 -3.005511220228836676e-03 -1.651886729722279110e-03 -2.411373700424924299e-03 5.930838226474723866e-04 -1.314079741389005207e-03 1.963386593250519689e-04 -4.661605887828596212e-04 -1.327111891037301627e-03 9.837599532191358513e-05 -6.436858494610704553e-04 -1.291165626565587434e-04 -1.464041071401022158e-03 1.251571125743225011e-03 4.014369585484909306e-04 7.333395782127559480e-04 -6.734539732130979104e-05 8.439571964549729462e-04 6.935768417953946767e-04 0.000000000000000000e+00 0.000000000000000000e+00 0.000000000000000000e+00 -1.967903760403182472e-15 -1.796147095305212590e-15 0.000000000000000000e+00 -1.184721808884477829e-15 1.271878895614906695e-15 0.000000000000000000e+00 -2.610418909940266687e-16 -9.898404864521529420e-16 2.224097595956023321e-16 0.000000000000000000e+00 0.000000000000000000e+00 0.000000000000000000e+00 0.000000000000000000e+00 -2.436071965223153567e-15 -3.115117472715077880e-15 0.000000000000000000e+00 -2.388247949883940496e-15 -5.013020630245852092e-16 -2.610418909940266687e-16 -9.898404864521529420e-16 2.224097595956023321e-16 0.000000000000000000e+00 -5.371953465829527691e-15 2.365718050557700667e-15 0.000000000000000000e+00 -2.945594809343471821e-15 4.301802161988756419e-15 0.000000000000000000e+00 4.443239518594414821e-15 2.920291887656591675e-15 -2.610418909940266687e-16 -9.898404864521529420e-16 2.224097595956023321e-16 0.000000000000000000e+00 0.000000000000000000e+00 0.000000000000000000e+00 0.000000000000000000e+00 6.404631595719012657e-17 -2.549981039344444541e-16 0.000000000000000000e+00 2.212348064433253631e-15 4.124153404510061319e-15 -2.610418909940266687e-16 -9.898404864521529420e-16 2.224097595956023321e-16 0.000000000000000000e+00 0.000000000000000000e+00 0.000000000000000000e+00 0.000000000000000000e+00 2.368368597164766776e-16 -2.887212653318535631e-15 0.000000000000000000e+00 -1.324076130449538666e-16 1.334772506215433235e-15 -1.721999152006195273e-03 -5.857540116892265888e-04 -2.416886328059661936e-03 -5.324879136422062693e-04 4.283378131834205457e-04 1.403287277975593956e-03 -9.729266257751061466e-04 9.817681104237645836e-04 4.406528996254236059e-03 8.421765826272464839e-03 -1.762410328200078504e-03 -8.055534823929989818e-03 0.000000000000000000e+00 0.000000000000000000e+00 0.000000000000000000e+00 4.656989747699015815e-15 1.448954134792410910e-15 0.000000000000000000e+00 2.934129343724918496e-16 1.362489516422578574e-15 0.000000000000000000e+00 1.138627858767604778e-16 1.497700165066467280e-15 -6.933138660596684854e-16 0.000000000000000000e+00 0.000000000000000000e+00 0.000000000000000000e+00 0.000000000000000000e+00 -1.435010810339859889e-15 1.273518255529697963e-15 0.000000000000000000e+00 -1.569340836363503500e-15 1.516588371017976991e-14 1.138627858767604778e-16 1.497700165066467280e-15 -6.933138660596684854e-16 0.000000000000000000e+00 3.714632206996685810e-16 3.327360968726568581e-16 0.000000000000000000e+00 2.746552547372171958e-16 3.960744629969759904e-16 0.000000000000000000e+00 -3.125478659237116975e-15 1.466246371549167782e-14 1.138627858767604778e-16 1.497700165066467280e-15 -6.933138660596684854e-16 0.000000000000000000e+00 0.000000000000000000e+00 0.000000000000000000e+00 0.000000000000000000e+00 -1.971629127063768805e-15 4.711166655874961329e-16 0.000000000000000000e+00 -2.036753447867893550e-15 1.005852056760512232e-14 1.138627858767604778e-16 1.497700165066467280e-15 -6.933138660596684854e-16 0.000000000000000000e+00 0.000000000000000000e+00 0.000000000000000000e+00 0.000000000000000000e+00 -2.349071883428612135e-15 2.381552675866056986e-15 0.000000000000000000e+00 1.927434094640433941e-15 -3.956412146280616618e-15
